<svg width="321.86240234375px" height="120.00000305175782px" xmlns="http://www.w3.org/2000/svg" viewBox="89.06879882812501 14.999998474121092 321.86240234375 120.00000305175782" style="background: none;" preserveAspectRatio="xMidYMid"><defs><linearGradient id="editing-glowing-gradient" x1="0.8146601955249186" x2="0.18533980447508142" y1="0.8885729807284856" y2="0.11142701927151444"><stop offset="0" stop-color="#8cd4f3"></stop><stop offset="1" stop-color="#356aff"></stop></linearGradient><filter id="editing-glowing" x="-100%" y="-100%" width="300%" height="300%"><feGaussianBlur in="SourceGraphic" result="blur" stdDeviation="10"></feGaussianBlur><feMerge><feMergeNode in="blur"></feMergeNode><feMergeNode in="SourceGraphic"></feMergeNode></feMerge></filter></defs><g filter="url(#editing-glowing)"><g transform="translate(136.6549859046936, 97.71999168395996)"><path d="M18.94-11.97L18.94-1.28L5.31-1.28L2.69-3.97L3.97-41.79L3.97-41.79Q4.03-43.20 5.15-44.32L5.15-44.32L5.15-44.32Q6.27-45.44 8.26-45.44L8.26-45.44L9.09-45.38L18.94-44.10L17.92-33.79L14.98-33.79L14.98-39.74L14.98-39.74Q14.98-40.32 14.21-40.32L14.21-40.32L10.24-40.32L10.24-40.32Q9.02-40.32 8.48-39.33L8.48-39.33L8.48-39.33Q7.94-38.34 7.94-37.12L7.94-37.12L7.94-37.12Q7.94-36.42 8.13-36.29L8.13-36.29L8.13-6.34L8.13-6.34Q7.94-6.27 7.94-6.14L7.94-6.14L7.94-6.14Q7.94-5.95 8.51-5.95L8.51-5.95L14.85-5.95L14.85-5.95Q15.62-5.95 15.62-6.34L15.62-6.34L15.62-11.14L16.83-11.90L18.94-11.97ZM37.70 0L29.18 0L29.18 0Q26.56 0 25.54-0.83L25.54-0.83L25.54-0.83Q24.51-1.66 24.51-3.58L24.51-3.58L24.51-43.90L24.51-43.90Q25.92-44.67 28.19-45.06L28.19-45.06L28.19-45.06Q30.46-45.44 34.24-45.44L34.24-45.44L34.24-45.44Q35.97-45.44 37.06-44.58L37.06-44.58L37.06-44.58Q38.14-43.71 38.14-42.37L38.14-42.37L37.70 0ZM28.61-4.03L33.15-3.65L33.73-4.22L34.11-40.77L34.11-40.77Q34.11-41.09 33.54-41.15L33.54-41.15L29.57-41.34L28.99-40.96L28.61-4.03ZM47.87 0L44.54 0L44.54-45.44L49.15-45.44L53.82-17.66L54.34-17.66L58.69-45.44L62.40-45.44L63.87 0L59.65 0L59.65-34.24L59.20-34.24L54.78-10.05L52.67-9.60L48.13-37.70L47.87-37.70L47.87 0ZM70.27-43.97L70.27-43.97Q70.27-44.61 72.64-45.02L72.64-45.02L72.64-45.02Q75.01-45.44 77.25-45.44L77.25-45.44L80-45.44L80-45.44Q80.83-45.44 81.57-45.09L81.57-45.09L81.57-45.09Q82.30-44.74 82.30-44.10L82.30-44.10L83.01-24.26L80.77-20.29L73.73-19.58L73.22 0L68.80 0L70.27-43.97ZM74.11-24.45L78.27-24.64L78.27-24.64Q78.66-24.64 78.66-25.02L78.66-25.02L78.66-41.60L77.70-42.56L74.11-42.11L74.11-24.45ZM100.22-45.44L102.85 0L100.03 0L97.73-17.02L92.61-14.59L91.20 0L87.23 0L90.11-45.44L100.22-45.44ZM96.90-42.37L96.90-42.37Q96.90-42.75 96.51-42.75L96.51-42.75L93.76-42.11L93.76-42.11Q93.38-41.92 93.38-41.47L93.38-41.47L93.38-18.94L93.38-18.94Q93.38-18.62 93.76-18.62L93.76-18.62L96.13-19.01L96.13-19.01Q96.51-19.01 96.51-19.39L96.51-19.39L96.90-42.37ZM123.90-11.97L123.90-1.28L110.27-1.28L107.65-3.97L108.93-41.79L108.93-41.79Q108.99-43.20 110.11-44.32L110.11-44.32L110.11-44.32Q111.23-45.44 113.22-45.44L113.22-45.44L114.05-45.38L123.90-44.10L122.88-33.79L119.94-33.79L119.94-39.74L119.94-39.74Q119.94-40.32 119.17-40.32L119.17-40.32L115.20-40.32L115.20-40.32Q113.98-40.32 113.44-39.33L113.44-39.33L113.44-39.33Q112.90-38.34 112.90-37.12L112.90-37.12L112.90-37.12Q112.90-36.42 113.09-36.29L113.09-36.29L113.09-6.34L113.09-6.34Q112.90-6.27 112.90-6.14L112.90-6.14L112.90-6.14Q112.90-5.95 113.47-5.95L113.47-5.95L119.81-5.95L119.81-5.95Q120.58-5.95 120.58-6.34L120.58-6.34L120.58-11.14L121.79-11.90L123.90-11.97ZM128.77-45.44L142.02-44.54L142.34-40.51L136.70-40.51L136.70 0L131.26 0L132.54-39.36L127.94-40.90L128.77-45.44ZM151.17-45.44L152.51-1.28L147.14-1.28L147.14-45.44L151.17-45.44ZM168.32-45.44L173.25-43.39L173.25-3.58L173.25-3.58Q173.25-1.47 171.90-0.74L171.90-0.74L171.90-0.74Q170.56 0 169.47 0L169.47 0L158.72 0L158.72-3.58L159.10-5.38L157.76-45.44L168.32-45.44ZM165.89-4.42L165.89-4.42Q166.85-4.42 167.36-5.18L167.36-5.18L167.36-5.18Q167.87-5.95 168-8.38L168-8.38L169.28-40.83L169.28-40.83Q169.28-41.22 169.15-41.31L169.15-41.31L169.15-41.31Q169.02-41.41 168.70-41.41L168.70-41.41L163.84-41.41L163.84-41.41Q163.26-41.41 163.26-40.83L163.26-40.83L163.26-4.99L163.26-4.99Q163.26-4.42 163.84-4.42L163.84-4.42L165.89-4.42ZM180.29 0L180.29-5.89L186.43-6.14L186.18 0L180.29 0ZM203.84 0L195.14 0L195.14 0Q194.24 0 193.34-0.77L193.34-0.77L193.34-0.77Q192.45-1.54 192.38-2.43L192.38-2.43L191.87-11.01L195.01-11.01L195.33-6.02L200.13-5.70L200.13-44.54L202.69-45.44L205.06-45.44L203.84 0ZM223.17-36.42L220.80-36.42L219.52-41.41L215.68-40.96L214.72-26.75L224-25.09L223.10-3.84L223.10-3.84Q223.10-2.56 221.44-1.28L221.44-1.28L221.44-1.28Q219.78 0 218.37 0L218.37 0L210.88 0L210.30-10.94L214.08-10.94L214.02-5.38L218.50-4.35L219.52-21.38L210.88-23.30L210.88-43.90L213.44-45.44L223.49-45.44L223.17-36.42Z" fill="url(#editing-glowing-gradient)"></path></g></g><style>text {
  font-size: 64px;
  font-family: Arial Black;
  dominant-baseline: central;
  text-anchor: middle;
}</style></svg>